# xmcd
#
# Track frame offsets:
#	150
#	18067
#	33875
#	48167
#	59713
#	73122
#	91081
#	105349
#	116273
#	129371
#	140257
#	158084
#	169049
#	182836
#	196298
#
# Disc length: 2864 seconds
#
# Revision: 0
# Processed by: cddbd v1.5.1PL2 Copyright (c) Steve Scherf et al.
# Submitted via: audiograbber 1.83.01
#
DISCID=b80b2e0f
DTITLE=Route Sixty-Six - Songs That Hank Wrote
DYEAR=2005
DGENRE=Country
TTITLE0=No, Not Now
TTITLE1=Long Gone Lonesome Blues
TTITLE2=Fly Trouble
TTITLE3=Cajun Baby
TTITLE4=I Can't Get You Off Of My Mind
TTITLE5=Howling At The Moon
TTITLE6=I'm So Lonesome I Could Cry
TTITLE7=Baby We're Really In Love
TTITLE8=Calling You
TTITLE9=I'll Never Get Out Of This World Alive
TTITLE10=My Sweet Love Ain't Around
TTITLE11=If I Didn't Love You
TTITLE12=Jambalaya
TTITLE13=I'm A Long Gone Daddy
TTITLE14=Pan American
EXTD=
EXTT0=
EXTT1=
EXTT2=
EXTT3=
EXTT4=
EXTT5=
EXTT6=
EXTT7=
EXTT8=
EXTT9=
EXTT10=
EXTT11=
EXTT12=
EXTT13=
EXTT14=
PLAYORDER=
